Coordinates
version=1
nRows=8
nColumns=40
inDegrees=yes

Units are S.I. units (second, meters, Newtons, ...)
Angles are in degrees.

endheader
time	pelvis_tilt	pelvis_list	pelvis_rotation	pelvis_tx	pelvis_ty	pelvis_tz	hip_flexion_r	hip_adduction_r	hip_rotation_r	knee_angle_r	knee_angle_r_beta	ankle_angle_r	subtalar_angle_r	mtp_angle_r	hip_flexion_l	hip_adduction_l	hip_rotation_l	knee_angle_l	knee_angle_l_beta	ankle_angle_l	subtalar_angle_l	mtp_angle_l	lumbar_extension	lumbar_bending	lumbar_rotation	arm_flex_r	arm_add_r	arm_rot_r	elbow_flex_r	pro_sup_r	wrist_flex_r	wrist_dev_r	arm_flex_l	arm_add_l	arm_rot_l	elbow_flex_l	pro_sup_l	wrist_flex_l	wrist_dev_l
     42.95000000	     -6.25759632	     -3.21776131	      0.84605724	      1.06076617	      0.91053741	      0.42680276	     12.13294264	     -6.17602294	     -3.77176917	     47.23371713	     47.23371713	      5.71914175	    -10.63405389	    -23.47366512	     24.19055348	     -0.79932269	      2.33030350	     34.29829814	     34.29829814	     18.47898759	    -17.68060894	      9.56976235	    -11.08570445	      5.34519694	      3.71611490	     20.62574407	    -13.88806780	     -3.92630370	     25.17245264	     46.25048106	      0.00000000	      0.00000000	     10.87077890	    -12.68860014	     15.67201812	     47.89064563	     46.22710842	      0.00000000	      0.00000000
     42.97071429	     -6.04844297	     -3.20441409	      0.61615665	      1.06124196	      0.90886788	      0.42503071	     14.89285293	     -6.15957844	     -3.10508276	     52.31238426	     52.31238426	      3.24567026	    -14.05332256	    -22.06316203	     23.98641808	     -0.71419427	      2.20012597	     35.05400686	     35.05400686	     19.18413639	    -17.79618934	      9.31201236	    -11.31359558	      5.46099147	      3.25493129	     17.04376685	    -13.86337885	     -3.84150115	     24.10437244	     46.26320392	      0.00000000	      0.00000000	     12.67040959	    -12.97516539	     15.27448532	     49.71389912	     46.29802115	      0.00000000	      0.00000000
     42.99142857	     -5.88870384	     -3.12093205	      0.36600666	      1.06164730	      0.90722981	      0.42335648	     17.71465977	     -6.21880969	     -2.58153963	     57.27394130	     57.27394130	      2.17086011	    -15.77155852	    -16.96824348	     23.77954923	     -0.55312398	      2.05298698	     35.73445843	     35.73445843	     19.98238426	    -17.86305310	      9.41657912	    -11.52095461	      5.49590953	      2.75192958	     12.92775765	    -13.93886002	     -3.46172660	     24.21563407	     46.20805169	      0.00000000	      0.00000000	     14.30939270	    -13.68373852	     15.42402939	     52.33417416	     46.33660447	      0.00000000	      0.00000000
     43.01214286	     -5.66295753	     -3.04828277	      0.05833514	      1.06204267	      0.90615181	      0.42198424	     20.29904159	     -6.15650491	     -2.06410590	     61.61781030	     61.61781030	      2.08734252	    -16.78527649	     -9.79934981	     23.36292270	     -0.44738724	      1.84113368	     36.16130220	     36.16130220	     20.62402677	    -17.92564647	      9.38836914	    -11.83171773	      5.53895313	      2.51846301	      8.93432515	    -14.01409659	     -3.10262583	     23.78648410	     46.18267926	      0.00000000	      0.00000000	     16.35965560	    -14.09291138	     15.32556009	     54.20371326	     46.40090891	      0.00000000	      0.00000000
     43.03285714	     -5.48042342	     -2.98630779	     -0.29094918	      1.06231189	      0.90564426	      0.42096890	     22.70412681	     -6.05835184	     -1.63916192	     65.11333969	     65.11333969	      2.39934025	    -17.58333591	     -2.98393926	     22.85282213	     -0.39063866	      1.58180944	     36.31082221	     36.31082221	     21.11716358	    -17.96591206	      9.30825670	    -12.14169718	      5.58829157	      2.28679878	      5.11406274	    -13.98229288	     -3.06010615	     23.43923575	     46.18154627	      0.00000000	      0.00000000	     18.30643508	    -14.53173988	     14.96291612	     56.22235858	     46.48762276	      0.00000000	      0.00000000
     43.05357143	     -5.36199470	     -2.92183424	     -0.71399340	      1.06240830	      0.90582383	      0.42042013	     24.94291676	     -5.96159473	     -1.27759958	     67.69918626	     67.69918626	      3.22835755	    -18.06892338	      3.31542822	     22.24366643	     -0.38496208	      1.23550458	     36.11202021	     36.11202021	     21.38364804	    -17.99835778	      9.19316254	    -12.39494393	      5.62277065	      1.97058096	      1.51954743	    -13.92737027	     -3.35705832	     23.41011415	     46.20496914	      0.00000000	      0.00000000	     20.08723441	    -15.13276486	     14.37154781	     58.28031916	     46.59365055	      0.00000000	      0.00000000
     43.07428571	     -5.29383214	     -2.84934983	     -1.17715131	      1.06238500	      0.90675050	      0.42028057	     26.90645834	     -5.90818656	     -0.98800818	     69.19573967	     69.19573967	      3.93807090	    -18.52197146	      7.02197760	     21.49875202	     -0.40107470	      0.85517393	     35.53504524	     35.53504524	     21.47952612	    -17.98467445	      9.04418592	    -12.63781330	      5.64502719	      1.62765081	     -1.67061818	    -13.72406884	     -3.90263843	     23.41486890	     46.24909341	      0.00000000	      0.00000000	     21.70329742	    -15.70523718	     13.52759517	     60.45777618	     46.71620916	      0.00000000	      0.00000000
     43.09500000	     -5.27331890	     -2.80437647	     -1.69685851	      1.06221424	      0.90846249	      0.42063459	     28.62832388	     -5.83828357	     -0.73249524	     69.66002139	     69.66002139	      4.78138734	    -18.76227479	      9.24842410	     20.62330980	     -0.49583479	      0.40031897	     34.58672816	     34.58672816	     21.35206673	    -17.93758871	      8.86833824	    -12.86617983	      5.65932100	      1.31366447	     -4.54536325	    -13.52009319	     -4.66327710	     23.60536302	     46.30374286	      0.00000000	      0.00000000	     23.15787803	    -16.32180841	     12.46508094	     62.82412034	     46.85429055	      0.00000000	      0.00000000
